ffmpeg started on 2026-03-30 at 17:07:14
Report written to "D:\Convert\FFMetrics\reports\ssim_report-6.txt"
Log level: 32
Command line:
ffmpeg -hide_banner -nostdin -r 24/1 -i "F:\\\xc0\xed\xe8\xec\xe5\\LightFamily\\\xdf \xef\xf0\xe8\xe1\xf0\xe0\xeb \xea \xf0\xf3\xea\xe0\xec \xe4\xe5\xe2\xf3\xf8\xea\xf3 \xe8 \xf2\xe5\xef\xe5\xf0\xfc \xff \xf3\xf7\xf3 \xe5\xb8 \xe2\xf1\xff\xea\xe8\xec \xef\xeb\xee\xf5\xe8\xec \xe2\xe5\xf9\xe0\xec\\LightFamilyDUB_\xdf_\xef\xf0\xe8\xe1\xf0\xe0\xeb_\xea_\xf0\xf3\xea\xe0\xec_\xe4\xe5\xe2\xf3\xf8\xea\xf3_\xe8_\xf2\xe5\xef\xe5\xf0\xfc_\xf3\xf7\xf3_\xe5\xb8_\xe2\xf1\xff\xea\xe8\xec_02_HEVC.mkv" -r 24/1 -i "F:\\\xc0\xed\xe8\xec\xe5\\LightFamily\\\xdf \xef\xf0\xe8\xe1\xf0\xe0\xeb \xea \xf0\xf3\xea\xe0\xec \xe4\xe5\xe2\xf3\xf8\xea\xf3 \xe8 \xf2\xe5\xef\xe5\xf0\xfc \xff \xf3\xf7\xf3 \xe5\xb8 \xe2\xf1\xff\xea\xe8\xec \xef\xeb\xee\xf5\xe8\xec \xe2\xe5\xf9\xe0\xec\\LightFamilyDUB_\xdf_\xef\xf0\xe8\xe1\xf0\xe0\xeb_\xea_\xf0\xf3\xea\xe0\xec_\xe4\xe5\xe2\xf3\xf8\xea\xf3_\xe8_\xf2\xe5\xef\xe5\xf0\xfc_\xf3\xf7\xf3_\xe5\xb8_\xe2\xf1\xff\xea\xe8\xec_02.mp4" -lavfi "[0:v]settb=AVTB,setpts=PTS-STARTPTS,format=pix_fmts=yuv420p10le,fps=24/1,scale=1920:1080:flags=lanczos:param0=3:out_range=limited:out_chroma_loc=left,setsar=1/1,setdar=(1920/1080)*(1/1)[main];[1:v]settb=AVTB,setpts=PTS-STARTPTS,format=pix_fmts=yuv420p,fps=24/1,scale=1920:1080:flags=lanczos:param0=3:out_range=limited:out_chroma_loc=left,setsar=1/1,setdar=(1920/1080)*(1/1)[ref];[main][ref]ssim=eof_action=endall:stats_file='D\\:/Convert/FFMetrics/logs/ssim_logfile-6.txt'" -f null -
Input #0, matroska,webm, from 'F:\Аниме\LightFamily\Я прибрал к рукам девушку и теперь я учу её всяким плохим вещам\LightFamilyDUB_Я_прибрал_к_рукам_девушку_и_теперь_учу_её_всяким_02_HEVC.mkv':
  Metadata:
    HD_VIDEO        : 0
    MAJOR_BRAND     : mp42
    MINOR_VERSION   : 512
    COMPATIBLE_BRANDS: mp42
    ITUNMOVI        : <?xml version="1.0" encoding="UTF-8"?><!DOCTYPE plist PUBLIC "-//Apple Computer//DTD PLIST 1.0//EN"  "http://www.apple.com/DTDs/PropertyList-1.0.dtd"><plist version="1.0"><dict><key>studio</key><string>studio</string><key>cast</key><array><dict><key>name<
    MEDIA_TYPE      : 9
    SEASON_NUMBER   : 0
    EPISODE_SORT    : 0
    ENCODER         : Lavf61.7.100
  Duration: 00:23:40.94, start: 0.000000, bitrate: 1141 kb/s
  Stream #0:0(eng): Video: hevc (Main 10), yuv420p10le(tv, progressive), 1920x1080 [SAR 1:1 DAR 16:9], 24 fps, 24 tbr, 1k tbn (default)
      Metadata:
        HANDLER_NAME    : VideoHandler
        VENDOR_ID       : [0][0][0][0]
        ENCODER         : Lavc61.19.100 libx265
        BPS             : 1007386
        DURATION        : 00:23:40.166666666
        NUMBER_OF_FRAMES: 34084
        NUMBER_OF_BYTES : 178831973
        _STATISTICS_WRITING_APP: mkvpropedit v94.0 ('Initiate') 64-bit
        _STATISTICS_WRITING_DATE_UTC: 2026-03-29 15:12:09
        _STATISTICS_TAGS: BPS DURATION NUMBER_OF_FRAMES NUMBER_OF_BYTES
  Stream #0:1(eng): Audio: aac (LC), 48000 Hz, stereo, fltp (default)
      Metadata:
        HANDLER_NAME    : SoundHandler
        VENDOR_ID       : [0][0][0][0]
        ENCODER         : Lavc61.19.100 aac
        BPS             : 130327
        DURATION        : 00:23:40.907000000
        NUMBER_OF_FRAMES: 66606
        NUMBER_OF_BYTES : 23147871
        _STATISTICS_WRITING_APP: mkvpropedit v94.0 ('Initiate') 64-bit
        _STATISTICS_WRITING_DATE_UTC: 2026-03-29 15:12:09
        _STATISTICS_TAGS: BPS DURATION NUMBER_OF_FRAMES NUMBER_OF_BYTES
[mov,mp4,m4a,3gp,3g2,mj2 @ 000002382e849b00] Detected creation time before 1970, parsing as unix timestamp.
[mov,mp4,m4a,3gp,3g2,mj2 @ 000002382e849b00] Detected creation time before 1970, parsing as unix timestamp.
Input #1, mov,mp4,m4a,3gp,3g2,mj2, from 'F:\Аниме\LightFamily\Я прибрал к рукам девушку и теперь я учу её всяким плохим вещам\LightFamilyDUB_Я_прибрал_к_рукам_девушку_и_теперь_учу_её_всяким_02.mp4':
  Metadata:
    major_brand     : mp42
    minor_version   : 512
    compatible_brands: mp42
    creation_time   : 2024-11-18T11:56:01.000000Z
    media_type      : 9
    season_number   : 0
    episode_sort    : 0
    hd_video        : 0
    iTunMOVI        : <?xml version="1.0" encoding="UTF-8"?><!DOCTYPE plist PUBLIC "-//Apple Computer//DTD PLIST 1.0//EN"  "http://www.apple.com/DTDs/PropertyList-1.0.dtd"><plist version="1.0"><dict><key>studio</key><string>studio</string><key>cast</key><array><dict><key>name<
  Duration: 00:23:40.92, start: 0.000000, bitrate: 8198 kb/s
  Stream #1:0[0x1](eng): Video: h264 (Main) (avc1 / 0x31637661), yuv420p(progressive), 1920x1080 [SAR 1:1 DAR 16:9], 8067 kb/s, 24 fps, 24 tbr, 90k tbn (default)
      Metadata:
        creation_time   : 2024-11-18T11:56:01.000000Z
        handler_name    : VideoHandler
        vendor_id       : [0][0][0][0]
        encoder         : h264
  Stream #1:1[0x2](eng): Audio: aac (LC) (mp4a / 0x6134706D), 44100 Hz, stereo, fltp, 127 kb/s (default)
      Metadata:
        creation_time   : 2024-11-18T11:56:01.000000Z
        handler_name    : SoundHandler
        vendor_id       : [0][0][0][0]
Stream mapping:
  Stream #0:0 (hevc) -> settb:default
  Stream #1:0 (h264) -> settb:default
  ssim:default -> Stream #0:0 (wrapped_avframe)
  Stream #0:1 -> #0:1 (aac (native) -> pcm_s16le (native))
Output #0, null, to 'pipe:':
  Metadata:
    HD_VIDEO        : 0
    MAJOR_BRAND     : mp42
    MINOR_VERSION   : 512
    COMPATIBLE_BRANDS: mp42
    ITUNMOVI        : <?xml version="1.0" encoding="UTF-8"?><!DOCTYPE plist PUBLIC "-//Apple Computer//DTD PLIST 1.0//EN"  "http://www.apple.com/DTDs/PropertyList-1.0.dtd"><plist version="1.0"><dict><key>studio</key><string>studio</string><key>cast</key><array><dict><key>name<
    MEDIA_TYPE      : 9
    SEASON_NUMBER   : 0
    EPISODE_SORT    : 0
    encoder         : Lavf61.7.100
  Stream #0:0: Video: wrapped_avframe, yuv420p10le(tv, progressive), 1920x1080 [SAR 1:1 DAR 16:9], q=2-31, 200 kb/s, 24 fps, 24 tbn
      Metadata:
        encoder         : Lavc61.19.100 wrapped_avframe
  Stream #0:1(eng): Audio: pcm_s16le, 48000 Hz, stereo, s16, 1536 kb/s (default)
      Metadata:
        HANDLER_NAME    : SoundHandler
        VENDOR_ID       : [0][0][0][0]
        _STATISTICS_TAGS: BPS DURATION NUMBER_OF_FRAMES NUMBER_OF_BYTES
        BPS             : 130327
        DURATION        : 00:23:40.907000000
        NUMBER_OF_FRAMES: 66606
        NUMBER_OF_BYTES : 23147871
        _STATISTICS_WRITING_APP: mkvpropedit v94.0 ('Initiate') 64-bit
        _STATISTICS_WRITING_DATE_UTC: 2026-03-29 15:12:09
        encoder         : Lavc61.19.100 pcm_s16le
frame=  171 fps=0.0 q=-0.0 size=N/A time=00:00:07.12 bitrate=N/A speed=13.9x    frame=  344 fps=331 q=-0.0 size=N/A time=00:00:14.33 bitrate=N/A speed=13.8x    frame=  542 fps=349 q=-0.0 size=N/A time=00:00:22.58 bitrate=N/A speed=14.6x    frame=  761 fps=369 q=-0.0 size=N/A time=00:00:31.70 bitrate=N/A speed=15.4x    frame=  977 fps=379 q=-0.0 size=N/A time=00:00:40.70 bitrate=N/A speed=15.8x    frame= 1203 fps=388 q=-0.0 size=N/A time=00:00:50.12 bitrate=N/A speed=16.2x    frame= 1420 fps=393 q=-0.0 size=N/A time=00:00:59.16 bitrate=N/A speed=16.4x    frame= 1586 fps=385 q=-0.0 size=N/A time=00:01:06.08 bitrate=N/A speed=  16x    frame= 1742 fps=375 q=-0.0 size=N/A time=00:01:12.58 bitrate=N/A speed=15.6x    frame= 1897 fps=367 q=-0.0 size=N/A time=00:01:19.04 bitrate=N/A speed=15.3x    frame= 2074 fps=366 q=-0.0 size=N/A time=00:01:26.41 bitrate=N/A speed=15.2x    frame= 2288 fps=370 q=-0.0 size=N/A time=00:01:35.33 bitrate=N/A speed=15.4x    frame= 2500 fps=373 q=-0.0 size=N/A time=00:01:44.16 bitrate=N/A speed=15.5x    frame= 2689 fps=372 q=-0.0 size=N/A time=00:01:52.04 bitrate=N/A speed=15.5x    frame= 2831 fps=366 q=-0.0 size=N/A time=00:01:57.95 bitrate=N/A speed=15.3x    frame= 2982 fps=361 q=-0.0 size=N/A time=00:02:04.25 bitrate=N/A speed=  15x    frame= 3130 fps=357 q=-0.0 size=N/A time=00:02:10.41 bitrate=N/A speed=14.9x    frame= 3282 fps=354 q=-0.0 size=N/A time=00:02:16.75 bitrate=N/A speed=14.7x    frame= 3460 fps=353 q=-0.0 size=N/A time=00:02:24.16 bitrate=N/A speed=14.7x    frame= 3636 fps=352 q=-0.0 size=N/A time=00:02:31.50 bitrate=N/A speed=14.7x    frame= 3858 fps=356 q=-0.0 size=N/A time=00:02:40.75 bitrate=N/A speed=14.8x    frame= 4082 fps=359 q=-0.0 size=N/A time=00:02:50.08 bitrate=N/A speed=  15x    frame= 4290 fps=361 q=-0.0 size=N/A time=00:02:58.75 bitrate=N/A speed=  15x    frame= 4404 fps=355 q=-0.0 size=N/A time=00:03:03.50 bitrate=N/A speed=14.8x    frame= 4585 fps=355 q=-0.0 size=N/A time=00:03:11.04 bitrate=N/A speed=14.8x    frame= 4801 fps=358 q=-0.0 size=N/A time=00:03:20.04 bitrate=N/A speed=14.9x    frame= 5019 fps=360 q=-0.0 size=N/A time=00:03:29.12 bitrate=N/A speed=  15x    frame= 5249 fps=363 q=-0.0 size=N/A time=00:03:38.70 bitrate=N/A speed=15.1x    frame= 5484 fps=366 q=-0.0 size=N/A time=00:03:48.50 bitrate=N/A speed=15.3x    frame= 5697 fps=368 q=-0.0 size=N/A time=00:03:57.37 bitrate=N/A speed=15.3x    frame= 5925 fps=370 q=-0.0 size=N/A time=00:04:06.87 bitrate=N/A speed=15.4x    frame= 6157 fps=373 q=-0.0 size=N/A time=00:04:16.54 bitrate=N/A speed=15.5x    frame= 6371 fps=374 q=-0.0 size=N/A time=00:04:25.45 bitrate=N/A speed=15.6x    frame= 6594 fps=376 q=-0.0 size=N/A time=00:04:34.75 bitrate=N/A speed=15.7x    frame= 6825 fps=378 q=-0.0 size=N/A time=00:04:44.37 bitrate=N/A speed=15.7x    frame= 7038 fps=379 q=-0.0 size=N/A time=00:04:53.25 bitrate=N/A speed=15.8x    frame= 7259 fps=380 q=-0.0 size=N/A time=00:05:02.45 bitrate=N/A speed=15.8x    frame= 7470 fps=381 q=-0.0 size=N/A time=00:05:11.25 bitrate=N/A speed=15.9x    frame= 7687 fps=382 q=-0.0 size=N/A time=00:05:20.29 bitrate=N/A speed=15.9x    frame= 7905 fps=383 q=-0.0 size=N/A time=00:05:29.37 bitrate=N/A speed=  16x    frame= 8130 fps=384 q=-0.0 size=N/A time=00:05:38.75 bitrate=N/A speed=  16x    frame= 8339 fps=385 q=-0.0 size=N/A time=00:05:47.45 bitrate=N/A speed=  16x    frame= 8545 fps=385 q=-0.0 size=N/A time=00:05:56.04 bitrate=N/A speed=  16x    frame= 8712 fps=384 q=-0.0 size=N/A time=00:06:03.00 bitrate=N/A speed=  16x    frame= 8926 fps=384 q=-0.0 size=N/A time=00:06:11.91 bitrate=N/A speed=  16x    frame= 9144 fps=385 q=-0.0 size=N/A time=00:06:21.00 bitrate=N/A speed=  16x    frame= 9347 fps=385 q=-0.0 size=N/A time=00:06:29.45 bitrate=N/A speed=16.1x    frame= 9576 fps=387 q=-0.0 size=N/A time=00:06:39.00 bitrate=N/A speed=16.1x    frame= 9800 fps=387 q=-0.0 size=N/A time=00:06:48.33 bitrate=N/A speed=16.1x    frame= 9998 fps=387 q=-0.0 size=N/A time=00:06:56.58 bitrate=N/A speed=16.1x    frame=10209 fps=388 q=-0.0 size=N/A time=00:07:05.37 bitrate=N/A speed=16.2x    frame=10435 fps=389 q=-0.0 size=N/A time=00:07:14.79 bitrate=N/A speed=16.2x    frame=10648 fps=389 q=-0.0 size=N/A time=00:07:23.66 bitrate=N/A speed=16.2x    frame=10870 fps=390 q=-0.0 size=N/A time=00:07:32.91 bitrate=N/A speed=16.2x    frame=11076 fps=390 q=-0.0 size=N/A time=00:07:41.50 bitrate=N/A speed=16.3x    frame=11294 fps=391 q=-0.0 size=N/A time=00:07:50.58 bitrate=N/A speed=16.3x    frame=11520 fps=391 q=-0.0 size=N/A time=00:08:00.00 bitrate=N/A speed=16.3x    frame=11738 fps=392 q=-0.0 size=N/A time=00:08:09.08 bitrate=N/A speed=16.3x    frame=11963 fps=393 q=-0.0 size=N/A time=00:08:18.45 bitrate=N/A speed=16.4x    frame=12163 fps=393 q=-0.0 size=N/A time=00:08:26.79 bitrate=N/A speed=16.4x    frame=12349 fps=392 q=-0.0 size=N/A time=00:08:34.54 bitrate=N/A speed=16.3x    frame=12562 fps=393 q=-0.0 size=N/A time=00:08:43.41 bitrate=N/A speed=16.4x    frame=12783 fps=393 q=-0.0 size=N/A time=00:08:52.62 bitrate=N/A speed=16.4x    frame=13003 fps=394 q=-0.0 size=N/A time=00:09:01.79 bitrate=N/A speed=16.4x    frame=13227 fps=394 q=-0.0 size=N/A time=00:09:11.12 bitrate=N/A speed=16.4x    frame=13448 fps=395 q=-0.0 size=N/A time=00:09:20.33 bitrate=N/A speed=16.4x    frame=13660 fps=395 q=-0.0 size=N/A time=00:09:29.16 bitrate=N/A speed=16.5x    frame=13876 fps=395 q=-0.0 size=N/A time=00:09:38.16 bitrate=N/A speed=16.5x    frame=14109 fps=396 q=-0.0 size=N/A time=00:09:47.87 bitrate=N/A speed=16.5x    frame=14336 fps=397 q=-0.0 size=N/A time=00:09:57.33 bitrate=N/A speed=16.5x    frame=14547 fps=397 q=-0.0 size=N/A time=00:10:06.12 bitrate=N/A speed=16.5x    frame=14782 fps=398 q=-0.0 size=N/A time=00:10:15.91 bitrate=N/A speed=16.6x    frame=15013 fps=398 q=-0.0 size=N/A time=00:10:25.54 bitrate=N/A speed=16.6x    frame=15228 fps=399 q=-0.0 size=N/A time=00:10:34.50 bitrate=N/A speed=16.6x    frame=15449 fps=399 q=-0.0 size=N/A time=00:10:43.70 bitrate=N/A speed=16.6x    frame=15661 fps=399 q=-0.0 size=N/A time=00:10:52.54 bitrate=N/A speed=16.6x    frame=15878 fps=400 q=-0.0 size=N/A time=00:11:01.58 bitrate=N/A speed=16.7x    frame=16104 fps=400 q=-0.0 size=N/A time=00:11:11.00 bitrate=N/A speed=16.7x    frame=16330 fps=401 q=-0.0 size=N/A time=00:11:20.41 bitrate=N/A speed=16.7x    frame=16543 fps=401 q=-0.0 size=N/A time=00:11:29.29 bitrate=N/A speed=16.7x    frame=16716 fps=400 q=-0.0 size=N/A time=00:11:36.50 bitrate=N/A speed=16.7x    frame=16919 fps=400 q=-0.0 size=N/A time=00:11:44.95 bitrate=N/A speed=16.7x    frame=17113 fps=400 q=-0.0 size=N/A time=00:11:53.04 bitrate=N/A speed=16.6x    frame=17328 fps=400 q=-0.0 size=N/A time=00:12:02.00 bitrate=N/A speed=16.7x    frame=17550 fps=400 q=-0.0 size=N/A time=00:12:11.25 bitrate=N/A speed=16.7x    frame=17759 fps=400 q=-0.0 size=N/A time=00:12:19.95 bitrate=N/A speed=16.7x    frame=17964 fps=400 q=-0.0 size=N/A time=00:12:28.50 bitrate=N/A speed=16.7x    frame=18182 fps=400 q=-0.0 size=N/A time=00:12:37.58 bitrate=N/A speed=16.7x    frame=18406 fps=401 q=-0.0 size=N/A time=00:12:46.91 bitrate=N/A speed=16.7x    frame=18601 fps=401 q=-0.0 size=N/A time=00:12:55.04 bitrate=N/A speed=16.7x    frame=18815 fps=401 q=-0.0 size=N/A time=00:13:03.95 bitrate=N/A speed=16.7x    frame=19031 fps=401 q=-0.0 size=N/A time=00:13:12.95 bitrate=N/A speed=16.7x    frame=19224 fps=401 q=-0.0 size=N/A time=00:13:21.00 bitrate=N/A speed=16.7x    frame=19437 fps=401 q=-0.0 size=N/A time=00:13:29.87 bitrate=N/A speed=16.7x    frame=19655 fps=401 q=-0.0 size=N/A time=00:13:38.95 bitrate=N/A speed=16.7x    frame=19876 fps=401 q=-0.0 size=N/A time=00:13:48.16 bitrate=N/A speed=16.7x    frame=20099 fps=402 q=-0.0 size=N/A time=00:13:57.45 bitrate=N/A speed=16.7x    frame=20315 fps=402 q=-0.0 size=N/A time=00:14:06.45 bitrate=N/A speed=16.7x    frame=20534 fps=402 q=-0.0 size=N/A time=00:14:15.58 bitrate=N/A speed=16.7x    frame=20746 fps=402 q=-0.0 size=N/A time=00:14:24.41 bitrate=N/A speed=16.8x    frame=20961 fps=402 q=-0.0 size=N/A time=00:14:33.37 bitrate=N/A speed=16.8x    frame=21166 fps=402 q=-0.0 size=N/A time=00:14:41.91 bitrate=N/A speed=16.8x    frame=21374 fps=402 q=-0.0 size=N/A time=00:14:50.58 bitrate=N/A speed=16.8x    frame=21573 fps=402 q=-0.0 size=N/A time=00:14:58.87 bitrate=N/A speed=16.8x    frame=21809 fps=403 q=-0.0 size=N/A time=00:15:08.70 bitrate=N/A speed=16.8x    frame=22025 fps=403 q=-0.0 size=N/A time=00:15:17.70 bitrate=N/A speed=16.8x    frame=22245 fps=403 q=-0.0 size=N/A time=00:15:26.87 bitrate=N/A speed=16.8x    frame=22469 fps=403 q=-0.0 size=N/A time=00:15:36.20 bitrate=N/A speed=16.8x    frame=22698 fps=403 q=-0.0 size=N/A time=00:15:45.75 bitrate=N/A speed=16.8x    frame=22914 fps=404 q=-0.0 size=N/A time=00:15:54.75 bitrate=N/A speed=16.8x    frame=23131 fps=404 q=-0.0 size=N/A time=00:16:03.79 bitrate=N/A speed=16.8x    frame=23332 fps=404 q=-0.0 size=N/A time=00:16:12.16 bitrate=N/A speed=16.8x    frame=23546 fps=404 q=-0.0 size=N/A time=00:16:21.08 bitrate=N/A speed=16.8x    frame=23749 fps=404 q=-0.0 size=N/A time=00:16:29.54 bitrate=N/A speed=16.8x    frame=23970 fps=404 q=-0.0 size=N/A time=00:16:38.75 bitrate=N/A speed=16.8x    frame=24182 fps=404 q=-0.0 size=N/A time=00:16:47.58 bitrate=N/A speed=16.8x    frame=24404 fps=404 q=-0.0 size=N/A time=00:16:56.83 bitrate=N/A speed=16.8x    frame=24622 fps=404 q=-0.0 size=N/A time=00:17:05.91 bitrate=N/A speed=16.8x    frame=24847 fps=405 q=-0.0 size=N/A time=00:17:15.29 bitrate=N/A speed=16.9x    frame=25056 fps=405 q=-0.0 size=N/A time=00:17:24.00 bitrate=N/A speed=16.9x    frame=25254 fps=404 q=-0.0 size=N/A time=00:17:32.25 bitrate=N/A speed=16.9x    frame=25462 fps=404 q=-0.0 size=N/A time=00:17:40.91 bitrate=N/A speed=16.8x    frame=25678 fps=404 q=-0.0 size=N/A time=00:17:49.91 bitrate=N/A speed=16.9x    frame=25892 fps=405 q=-0.0 size=N/A time=00:17:58.83 bitrate=N/A speed=16.9x    frame=26083 fps=404 q=-0.0 size=N/A time=00:18:06.79 bitrate=N/A speed=16.8x    frame=26248 fps=404 q=-0.0 size=N/A time=00:18:13.66 bitrate=N/A speed=16.8x    frame=26424 fps=403 q=-0.0 size=N/A time=00:18:21.00 bitrate=N/A speed=16.8x    frame=26650 fps=403 q=-0.0 size=N/A time=00:18:30.41 bitrate=N/A speed=16.8x    frame=26873 fps=404 q=-0.0 size=N/A time=00:18:39.70 bitrate=N/A speed=16.8x    frame=27052 fps=403 q=-0.0 size=N/A time=00:18:47.16 bitrate=N/A speed=16.8x    frame=27275 fps=403 q=-0.0 size=N/A time=00:18:56.45 bitrate=N/A speed=16.8x    frame=27499 fps=404 q=-0.0 size=N/A time=00:19:05.79 bitrate=N/A speed=16.8x    frame=27730 fps=404 q=-0.0 size=N/A time=00:19:15.41 bitrate=N/A speed=16.8x    frame=27948 fps=404 q=-0.0 size=N/A time=00:19:24.50 bitrate=N/A speed=16.8x    frame=28100 fps=403 q=-0.0 size=N/A time=00:19:30.83 bitrate=N/A speed=16.8x    frame=28294 fps=403 q=-0.0 size=N/A time=00:19:38.91 bitrate=N/A speed=16.8x    frame=28510 fps=403 q=-0.0 size=N/A time=00:19:47.91 bitrate=N/A speed=16.8x    frame=28719 fps=403 q=-0.0 size=N/A time=00:19:56.62 bitrate=N/A speed=16.8x    frame=28946 fps=403 q=-0.0 size=N/A time=00:20:06.08 bitrate=N/A speed=16.8x    frame=29156 fps=404 q=-0.0 size=N/A time=00:20:14.83 bitrate=N/A speed=16.8x    frame=29381 fps=404 q=-0.0 size=N/A time=00:20:24.20 bitrate=N/A speed=16.8x    frame=29587 fps=404 q=-0.0 size=N/A time=00:20:32.79 bitrate=N/A speed=16.8x    frame=29824 fps=404 q=-0.0 size=N/A time=00:20:42.66 bitrate=N/A speed=16.8x    frame=30034 fps=404 q=-0.0 size=N/A time=00:20:51.41 bitrate=N/A speed=16.8x    frame=30251 fps=404 q=-0.0 size=N/A time=00:21:00.45 bitrate=N/A speed=16.8x    frame=30476 fps=405 q=-0.0 size=N/A time=00:21:09.83 bitrate=N/A speed=16.9x    frame=30699 fps=405 q=-0.0 size=N/A time=00:21:19.12 bitrate=N/A speed=16.9x    frame=30924 fps=405 q=-0.0 size=N/A time=00:21:28.50 bitrate=N/A speed=16.9x    frame=31140 fps=405 q=-0.0 size=N/A time=00:21:37.50 bitrate=N/A speed=16.9x    frame=31344 fps=405 q=-0.0 size=N/A time=00:21:46.00 bitrate=N/A speed=16.9x    frame=31559 fps=405 q=-0.0 size=N/A time=00:21:54.95 bitrate=N/A speed=16.9x    frame=31773 fps=405 q=-0.0 size=N/A time=00:22:03.87 bitrate=N/A speed=16.9x    frame=31957 fps=405 q=-0.0 size=N/A time=00:22:11.54 bitrate=N/A speed=16.9x    frame=32156 fps=405 q=-0.0 size=N/A time=00:22:19.83 bitrate=N/A speed=16.9x    frame=32356 fps=404 q=-0.0 size=N/A time=00:22:28.16 bitrate=N/A speed=16.9x    frame=32524 fps=404 q=-0.0 size=N/A time=00:22:35.16 bitrate=N/A speed=16.8x    frame=32703 fps=404 q=-0.0 size=N/A time=00:22:42.62 bitrate=N/A speed=16.8x    frame=32879 fps=403 q=-0.0 size=N/A time=00:22:49.95 bitrate=N/A speed=16.8x    frame=33059 fps=403 q=-0.0 size=N/A time=00:22:57.45 bitrate=N/A speed=16.8x    frame=33268 fps=403 q=-0.0 size=N/A time=00:23:06.16 bitrate=N/A speed=16.8x    frame=33440 fps=403 q=-0.0 size=N/A time=00:23:13.33 bitrate=N/A speed=16.8x    frame=33627 fps=402 q=-0.0 size=N/A time=00:23:21.12 bitrate=N/A speed=16.8x    frame=33840 fps=402 q=-0.0 size=N/A time=00:23:30.00 bitrate=N/A speed=16.8x    frame=34041 fps=402 q=-0.0 size=N/A time=00:23:38.37 bitrate=N/A speed=16.8x    [Parsed_ssim_14 @ 000002383bc356c0] SSIM Y:0.992994 (21.545308) U:0.994539 (22.627362) V:0.994990 (23.001815) All:0.993584 (21.927513)
[out#0/null @ 000002382e82eb80] video:14645KiB audio:266424KiB subtitle:0KiB other streams:0KiB global headers:0KiB muxing overhead: unknown
frame=34084 fps=402 q=-0.0 Lsize=N/A time=00:23:40.16 bitrate=N/A speed=16.8x    
